<mxfile host="Electron" modified="2024-02-06T14:40:40.782Z" agent="Mozilla/5.0 (X11; Linux x86_64) AppleWebKit/537.36 (KHTML, like Gecko) draw.io/22.1.21 Chrome/120.0.6099.109 Electron/28.1.0 Safari/537.36" etag="FE98By4wb8brUBv3R08u" version="22.1.21" type="device">
  <diagram id="C5RBs43oDa-KdzZeNtuy" name="Page-1">
    <mxGraphModel dx="3585" dy="2205" grid="1" gridSize="10" guides="1" tooltips="1" connect="1" arrows="1" fold="1" page="1" pageScale="1" pageWidth="827" pageHeight="1169" math="0" shadow="0">
      <root>
        <mxCell id="WIyWlLk6GJQsqaUBKTNV-0" />
        <mxCell id="WIyWlLk6GJQsqaUBKTNV-1" parent="WIyWlLk6GJQsqaUBKTNV-0" />
        <mxCell id="nWd9DYiu0VlQMOzA8pWd-0" value="Renderer.BaseRenderer.BaseRenderer.render()" style="swimlane;whiteSpace=wrap;html=1;startSize=30;" parent="WIyWlLk6GJQsqaUBKTNV-1" vertex="1">
          <mxGeometry x="10" y="70" width="540" height="1060" as="geometry">
            <mxRectangle x="80" y="890" width="250" height="30" as="alternateBounds" />
          </mxGeometry>
        </mxCell>
        <mxCell id="XBrvubIOwSxENSqEJ7tH-195" style="edgeStyle=orthogonalEdgeStyle;rounded=0;orthogonalLoop=1;jettySize=auto;html=1;exitX=0.5;exitY=1;exitDx=0;exitDy=0;" parent="nWd9DYiu0VlQMOzA8pWd-0" source="nWd9DYiu0VlQMOzA8pWd-38" target="XBrvubIOwSxENSqEJ7tH-194" edge="1">
          <mxGeometry relative="1" as="geometry" />
        </mxCell>
        <mxCell id="nWd9DYiu0VlQMOzA8pWd-38" value="Create mesh" style="rounded=1;whiteSpace=wrap;html=1;fontSize=12;glass=0;strokeWidth=1;shadow=0;" parent="nWd9DYiu0VlQMOzA8pWd-0" vertex="1">
          <mxGeometry x="236.25" y="80" width="120" height="30" as="geometry" />
        </mxCell>
        <mxCell id="XBrvubIOwSxENSqEJ7tH-318" style="edgeStyle=orthogonalEdgeStyle;rounded=0;orthogonalLoop=1;jettySize=auto;html=1;exitX=0.5;exitY=1;exitDx=0;exitDy=0;entryX=0.5;entryY=0;entryDx=0;entryDy=0;" parent="nWd9DYiu0VlQMOzA8pWd-0" source="XBrvubIOwSxENSqEJ7tH-194" target="XBrvubIOwSxENSqEJ7tH-317" edge="1">
          <mxGeometry relative="1" as="geometry" />
        </mxCell>
        <mxCell id="XBrvubIOwSxENSqEJ7tH-194" value="for each polygon" style="swimlane;whiteSpace=wrap;html=1;startSize=30;" parent="nWd9DYiu0VlQMOzA8pWd-0" vertex="1">
          <mxGeometry x="100" y="160" width="392.5" height="750" as="geometry" />
        </mxCell>
        <mxCell id="XBrvubIOwSxENSqEJ7tH-196" value="Get polygon shell points X Y coordinates" style="rounded=1;whiteSpace=wrap;html=1;fontSize=12;glass=0;strokeWidth=1;shadow=0;" parent="XBrvubIOwSxENSqEJ7tH-194" vertex="1">
          <mxGeometry x="95" y="50" width="120" height="40" as="geometry" />
        </mxCell>
        <mxCell id="XBrvubIOwSxENSqEJ7tH-199" value="polygon has holes" style="rhombus;whiteSpace=wrap;html=1;" parent="XBrvubIOwSxENSqEJ7tH-194" vertex="1">
          <mxGeometry x="112.5" y="195" width="80" height="80" as="geometry" />
        </mxCell>
        <mxCell id="XBrvubIOwSxENSqEJ7tH-197" style="edgeStyle=orthogonalEdgeStyle;rounded=0;orthogonalLoop=1;jettySize=auto;html=1;exitX=1;exitY=0.5;exitDx=0;exitDy=0;entryX=0.5;entryY=0;entryDx=0;entryDy=0;" parent="XBrvubIOwSxENSqEJ7tH-194" source="XBrvubIOwSxENSqEJ7tH-199" target="XBrvubIOwSxENSqEJ7tH-275" edge="1">
          <mxGeometry relative="1" as="geometry">
            <mxPoint x="292" y="280" as="targetPoint" />
          </mxGeometry>
        </mxCell>
        <mxCell id="XBrvubIOwSxENSqEJ7tH-198" value="Yes" style="edgeLabel;html=1;align=center;verticalAlign=middle;resizable=0;points=[];" parent="XBrvubIOwSxENSqEJ7tH-197" vertex="1" connectable="0">
          <mxGeometry x="-0.4208" y="1" relative="1" as="geometry">
            <mxPoint as="offset" />
          </mxGeometry>
        </mxCell>
        <mxCell id="XBrvubIOwSxENSqEJ7tH-201" style="edgeStyle=orthogonalEdgeStyle;rounded=0;orthogonalLoop=1;jettySize=auto;html=1;exitX=0.5;exitY=1;exitDx=0;exitDy=0;entryX=0.5;entryY=0;entryDx=0;entryDy=0;" parent="XBrvubIOwSxENSqEJ7tH-194" source="XBrvubIOwSxENSqEJ7tH-199" target="XBrvubIOwSxENSqEJ7tH-294" edge="1">
          <mxGeometry relative="1" as="geometry">
            <mxPoint x="153" y="600" as="targetPoint" />
          </mxGeometry>
        </mxCell>
        <mxCell id="XBrvubIOwSxENSqEJ7tH-202" value="No" style="edgeLabel;html=1;align=center;verticalAlign=middle;resizable=0;points=[];" parent="XBrvubIOwSxENSqEJ7tH-201" vertex="1" connectable="0">
          <mxGeometry x="-0.363" y="1" relative="1" as="geometry">
            <mxPoint as="offset" />
          </mxGeometry>
        </mxCell>
        <mxCell id="XBrvubIOwSxENSqEJ7tH-204" style="edgeStyle=orthogonalEdgeStyle;rounded=0;orthogonalLoop=1;jettySize=auto;html=1;exitX=0.5;exitY=1;exitDx=0;exitDy=0;entryX=0.506;entryY=-0.049;entryDx=0;entryDy=0;entryPerimeter=0;" parent="XBrvubIOwSxENSqEJ7tH-194" source="XBrvubIOwSxENSqEJ7tH-196" target="XBrvubIOwSxENSqEJ7tH-199" edge="1">
          <mxGeometry relative="1" as="geometry" />
        </mxCell>
        <mxCell id="XBrvubIOwSxENSqEJ7tH-271" value="Get polygon shell points Z coordinates" style="rounded=1;whiteSpace=wrap;html=1;fontSize=12;glass=0;strokeWidth=1;shadow=0;" parent="XBrvubIOwSxENSqEJ7tH-194" vertex="1">
          <mxGeometry x="92.5" y="130" width="120" height="30" as="geometry" />
        </mxCell>
        <mxCell id="XBrvubIOwSxENSqEJ7tH-319" style="edgeStyle=orthogonalEdgeStyle;rounded=0;orthogonalLoop=1;jettySize=auto;html=1;exitX=0.5;exitY=1;exitDx=0;exitDy=0;entryX=0.5;entryY=0;entryDx=0;entryDy=0;" parent="XBrvubIOwSxENSqEJ7tH-194" source="XBrvubIOwSxENSqEJ7tH-275" target="XBrvubIOwSxENSqEJ7tH-294" edge="1">
          <mxGeometry relative="1" as="geometry" />
        </mxCell>
        <mxCell id="XBrvubIOwSxENSqEJ7tH-275" value="for each hole" style="swimlane;whiteSpace=wrap;html=1;startSize=30;" parent="XBrvubIOwSxENSqEJ7tH-194" vertex="1">
          <mxGeometry x="225" y="280" width="157.5" height="260" as="geometry" />
        </mxCell>
        <mxCell id="XBrvubIOwSxENSqEJ7tH-272" value="Get hole points X Y coordinates" style="rounded=1;whiteSpace=wrap;html=1;fontSize=12;glass=0;strokeWidth=1;shadow=0;" parent="XBrvubIOwSxENSqEJ7tH-275" vertex="1">
          <mxGeometry x="20" y="50" width="120" height="40" as="geometry" />
        </mxCell>
        <mxCell id="XBrvubIOwSxENSqEJ7tH-273" style="edgeStyle=orthogonalEdgeStyle;rounded=0;orthogonalLoop=1;jettySize=auto;html=1;exitX=0.5;exitY=1;exitDx=0;exitDy=0;entryX=0.475;entryY=-0.047;entryDx=0;entryDy=0;entryPerimeter=0;" parent="XBrvubIOwSxENSqEJ7tH-275" source="XBrvubIOwSxENSqEJ7tH-272" target="XBrvubIOwSxENSqEJ7tH-290" edge="1">
          <mxGeometry relative="1" as="geometry">
            <mxPoint x="78" y="191" as="targetPoint" />
          </mxGeometry>
        </mxCell>
        <mxCell id="XBrvubIOwSxENSqEJ7tH-274" value="Get hole points Z coordinates" style="rounded=1;whiteSpace=wrap;html=1;fontSize=12;glass=0;strokeWidth=1;shadow=0;" parent="XBrvubIOwSxENSqEJ7tH-275" vertex="1">
          <mxGeometry x="17.5" y="130" width="120" height="30" as="geometry" />
        </mxCell>
        <mxCell id="XBrvubIOwSxENSqEJ7tH-290" value="Insert hole points inside polygon" style="rounded=1;whiteSpace=wrap;html=1;fontSize=12;glass=0;strokeWidth=1;shadow=0;" parent="XBrvubIOwSxENSqEJ7tH-275" vertex="1">
          <mxGeometry x="20" y="210" width="120" height="30" as="geometry" />
        </mxCell>
        <mxCell id="XBrvubIOwSxENSqEJ7tH-299" style="edgeStyle=orthogonalEdgeStyle;rounded=0;orthogonalLoop=1;jettySize=auto;html=1;exitX=0.5;exitY=1;exitDx=0;exitDy=0;" parent="XBrvubIOwSxENSqEJ7tH-194" source="XBrvubIOwSxENSqEJ7tH-294" target="XBrvubIOwSxENSqEJ7tH-298" edge="1">
          <mxGeometry relative="1" as="geometry" />
        </mxCell>
        <mxCell id="XBrvubIOwSxENSqEJ7tH-294" value="Adapt coordinates to rendering" style="rounded=1;whiteSpace=wrap;html=1;fontSize=12;glass=0;strokeWidth=1;shadow=0;" parent="XBrvubIOwSxENSqEJ7tH-194" vertex="1">
          <mxGeometry x="92.5" y="610" width="120" height="30" as="geometry" />
        </mxCell>
        <mxCell id="XBrvubIOwSxENSqEJ7tH-298" value="Add polygon to mesh" style="rounded=1;whiteSpace=wrap;html=1;fontSize=12;glass=0;strokeWidth=1;shadow=0;" parent="XBrvubIOwSxENSqEJ7tH-194" vertex="1">
          <mxGeometry x="92.5" y="690" width="120" height="30" as="geometry" />
        </mxCell>
        <mxCell id="XBrvubIOwSxENSqEJ7tH-321" style="edgeStyle=orthogonalEdgeStyle;rounded=0;orthogonalLoop=1;jettySize=auto;html=1;exitX=0.5;exitY=1;exitDx=0;exitDy=0;entryX=0.5;entryY=0;entryDx=0;entryDy=0;" parent="nWd9DYiu0VlQMOzA8pWd-0" source="XBrvubIOwSxENSqEJ7tH-317" target="XBrvubIOwSxENSqEJ7tH-320" edge="1">
          <mxGeometry relative="1" as="geometry" />
        </mxCell>
        <mxCell id="XBrvubIOwSxENSqEJ7tH-317" value="Create object from mesh" style="rounded=1;whiteSpace=wrap;html=1;fontSize=12;glass=0;strokeWidth=1;shadow=0;" parent="nWd9DYiu0VlQMOzA8pWd-0" vertex="1">
          <mxGeometry x="236.25" y="950" width="120" height="30" as="geometry" />
        </mxCell>
        <mxCell id="XBrvubIOwSxENSqEJ7tH-320" value="Add GeometryNodes modifier to object" style="rounded=1;whiteSpace=wrap;html=1;fontSize=12;glass=0;strokeWidth=1;shadow=0;" parent="nWd9DYiu0VlQMOzA8pWd-0" vertex="1">
          <mxGeometry x="236.25" y="1010" width="120" height="30" as="geometry" />
        </mxCell>
        <mxCell id="XBrvubIOwSxENSqEJ7tH-57" value="Renderer.BaseRenderer.&lt;br&gt;BaseRenderer.clear_object()" style="swimlane;whiteSpace=wrap;html=1;startSize=30;" parent="WIyWlLk6GJQsqaUBKTNV-1" vertex="1">
          <mxGeometry x="510" y="1160" width="220" height="170" as="geometry">
            <mxRectangle x="80" y="890" width="250" height="30" as="alternateBounds" />
          </mxGeometry>
        </mxCell>
        <mxCell id="XBrvubIOwSxENSqEJ7tH-193" style="edgeStyle=orthogonalEdgeStyle;rounded=0;orthogonalLoop=1;jettySize=auto;html=1;exitX=0.5;exitY=1;exitDx=0;exitDy=0;" parent="XBrvubIOwSxENSqEJ7tH-57" source="XBrvubIOwSxENSqEJ7tH-75" target="XBrvubIOwSxENSqEJ7tH-78" edge="1">
          <mxGeometry relative="1" as="geometry" />
        </mxCell>
        <mxCell id="XBrvubIOwSxENSqEJ7tH-75" value="Remove object" style="rounded=1;whiteSpace=wrap;html=1;fontSize=12;glass=0;strokeWidth=1;shadow=0;" parent="XBrvubIOwSxENSqEJ7tH-57" vertex="1">
          <mxGeometry x="50" y="50.000000000000014" width="120" height="30" as="geometry" />
        </mxCell>
        <mxCell id="XBrvubIOwSxENSqEJ7tH-78" value="Remove mesh" style="rounded=1;whiteSpace=wrap;html=1;fontSize=12;glass=0;strokeWidth=1;shadow=0;" parent="XBrvubIOwSxENSqEJ7tH-57" vertex="1">
          <mxGeometry x="50" y="110.04000000000002" width="120" height="30" as="geometry" />
        </mxCell>
        <mxCell id="XBrvubIOwSxENSqEJ7tH-205" value="Renderer.BaseRenderer.&lt;br&gt;BaseRenderer.interpolate_z()" style="swimlane;whiteSpace=wrap;html=1;startSize=30;fillColor=#d80073;fontColor=#ffffff;strokeColor=#A50040;" parent="WIyWlLk6GJQsqaUBKTNV-1" vertex="1">
          <mxGeometry x="10" y="1160" width="340" height="950" as="geometry">
            <mxRectangle x="80" y="890" width="250" height="30" as="alternateBounds" />
          </mxGeometry>
        </mxCell>
        <mxCell id="XBrvubIOwSxENSqEJ7tH-206" style="edgeStyle=orthogonalEdgeStyle;rounded=0;orthogonalLoop=1;jettySize=auto;html=1;exitX=0.5;exitY=1;exitDx=0;exitDy=0;" parent="XBrvubIOwSxENSqEJ7tH-205" source="XBrvubIOwSxENSqEJ7tH-207" target="XBrvubIOwSxENSqEJ7tH-208" edge="1">
          <mxGeometry relative="1" as="geometry" />
        </mxCell>
        <mxCell id="XBrvubIOwSxENSqEJ7tH-207" value="Find terrain slab the point is in" style="rounded=1;whiteSpace=wrap;html=1;fontSize=12;glass=0;strokeWidth=1;shadow=0;" parent="XBrvubIOwSxENSqEJ7tH-205" vertex="1">
          <mxGeometry x="50" y="50.000000000000014" width="120" height="30" as="geometry" />
        </mxCell>
        <mxCell id="XBrvubIOwSxENSqEJ7tH-208" value="Get the X and Y offest of the point in its slab" style="rounded=1;whiteSpace=wrap;html=1;fontSize=12;glass=0;strokeWidth=1;shadow=0;" parent="XBrvubIOwSxENSqEJ7tH-205" vertex="1">
          <mxGeometry x="50" y="110.04000000000002" width="120" height="30" as="geometry" />
        </mxCell>
        <mxCell id="XBrvubIOwSxENSqEJ7tH-209" style="edgeStyle=orthogonalEdgeStyle;rounded=0;orthogonalLoop=1;jettySize=auto;html=1;exitX=0.5;exitY=1;exitDx=0;exitDy=0;" parent="XBrvubIOwSxENSqEJ7tH-205" target="XBrvubIOwSxENSqEJ7tH-210" edge="1">
          <mxGeometry relative="1" as="geometry">
            <mxPoint x="110" y="140.04000000000002" as="sourcePoint" />
          </mxGeometry>
        </mxCell>
        <mxCell id="XBrvubIOwSxENSqEJ7tH-213" style="edgeStyle=orthogonalEdgeStyle;rounded=0;orthogonalLoop=1;jettySize=auto;html=1;exitX=0.5;exitY=1;exitDx=0;exitDy=0;entryX=0.5;entryY=0;entryDx=0;entryDy=0;" parent="XBrvubIOwSxENSqEJ7tH-205" source="XBrvubIOwSxENSqEJ7tH-210" target="XBrvubIOwSxENSqEJ7tH-212" edge="1">
          <mxGeometry relative="1" as="geometry" />
        </mxCell>
        <mxCell id="XBrvubIOwSxENSqEJ7tH-210" value="Get the X and Y index of the lower-left corner of the point&#39;s cell in the slab" style="rounded=1;whiteSpace=wrap;html=1;fontSize=12;glass=0;strokeWidth=1;shadow=0;" parent="XBrvubIOwSxENSqEJ7tH-205" vertex="1">
          <mxGeometry x="50" y="170.08" width="120" height="59.92" as="geometry" />
        </mxCell>
        <mxCell id="XBrvubIOwSxENSqEJ7tH-215" style="edgeStyle=orthogonalEdgeStyle;rounded=0;orthogonalLoop=1;jettySize=auto;html=1;exitX=0.5;exitY=1;exitDx=0;exitDy=0;entryX=0.5;entryY=0;entryDx=0;entryDy=0;" parent="XBrvubIOwSxENSqEJ7tH-205" source="XBrvubIOwSxENSqEJ7tH-212" target="XBrvubIOwSxENSqEJ7tH-214" edge="1">
          <mxGeometry relative="1" as="geometry" />
        </mxCell>
        <mxCell id="XBrvubIOwSxENSqEJ7tH-212" value="Get the X and Y in-cell offset of the point&amp;nbsp;" style="rounded=1;whiteSpace=wrap;html=1;fontSize=12;glass=0;strokeWidth=1;shadow=0;" parent="XBrvubIOwSxENSqEJ7tH-205" vertex="1">
          <mxGeometry x="50" y="260" width="120" height="40" as="geometry" />
        </mxCell>
        <mxCell id="XBrvubIOwSxENSqEJ7tH-218" style="edgeStyle=orthogonalEdgeStyle;rounded=0;orthogonalLoop=1;jettySize=auto;html=1;exitX=0.5;exitY=1;exitDx=0;exitDy=0;entryX=0.5;entryY=0;entryDx=0;entryDy=0;" parent="XBrvubIOwSxENSqEJ7tH-205" source="XBrvubIOwSxENSqEJ7tH-214" target="XBrvubIOwSxENSqEJ7tH-216" edge="1">
          <mxGeometry relative="1" as="geometry" />
        </mxCell>
        <mxCell id="XBrvubIOwSxENSqEJ7tH-219" value="Yes" style="edgeLabel;html=1;align=center;verticalAlign=middle;resizable=0;points=[];" parent="XBrvubIOwSxENSqEJ7tH-218" vertex="1" connectable="0">
          <mxGeometry x="-0.2762" y="-1" relative="1" as="geometry">
            <mxPoint as="offset" />
          </mxGeometry>
        </mxCell>
        <mxCell id="XBrvubIOwSxENSqEJ7tH-220" style="edgeStyle=orthogonalEdgeStyle;rounded=0;orthogonalLoop=1;jettySize=auto;html=1;exitX=1;exitY=0.5;exitDx=0;exitDy=0;" parent="XBrvubIOwSxENSqEJ7tH-205" source="XBrvubIOwSxENSqEJ7tH-214" target="XBrvubIOwSxENSqEJ7tH-217" edge="1">
          <mxGeometry relative="1" as="geometry" />
        </mxCell>
        <mxCell id="XBrvubIOwSxENSqEJ7tH-221" value="No" style="edgeLabel;html=1;align=center;verticalAlign=middle;resizable=0;points=[];" parent="XBrvubIOwSxENSqEJ7tH-220" vertex="1" connectable="0">
          <mxGeometry x="-0.4287" y="1" relative="1" as="geometry">
            <mxPoint as="offset" />
          </mxGeometry>
        </mxCell>
        <mxCell id="XBrvubIOwSxENSqEJ7tH-214" value="X index of &lt;br&gt;the lower-left &lt;br&gt;point is max&lt;br&gt;index of&lt;br&gt;slab" style="rhombus;whiteSpace=wrap;html=1;" parent="XBrvubIOwSxENSqEJ7tH-205" vertex="1">
          <mxGeometry x="55" y="320" width="110" height="120" as="geometry" />
        </mxCell>
        <mxCell id="XBrvubIOwSxENSqEJ7tH-230" style="edgeStyle=orthogonalEdgeStyle;rounded=0;orthogonalLoop=1;jettySize=auto;html=1;exitX=0.5;exitY=1;exitDx=0;exitDy=0;entryX=0.5;entryY=0;entryDx=0;entryDy=0;" parent="XBrvubIOwSxENSqEJ7tH-205" source="XBrvubIOwSxENSqEJ7tH-216" target="XBrvubIOwSxENSqEJ7tH-227" edge="1">
          <mxGeometry relative="1" as="geometry" />
        </mxCell>
        <mxCell id="XBrvubIOwSxENSqEJ7tH-216" value="Only use left side of cell in interpolation" style="rounded=1;whiteSpace=wrap;html=1;fontSize=12;glass=0;strokeWidth=1;shadow=0;" parent="XBrvubIOwSxENSqEJ7tH-205" vertex="1">
          <mxGeometry x="50" y="470" width="120" height="40" as="geometry" />
        </mxCell>
        <mxCell id="XBrvubIOwSxENSqEJ7tH-231" style="edgeStyle=orthogonalEdgeStyle;rounded=0;orthogonalLoop=1;jettySize=auto;html=1;exitX=0.5;exitY=1;exitDx=0;exitDy=0;entryX=0.5;entryY=0;entryDx=0;entryDy=0;" parent="XBrvubIOwSxENSqEJ7tH-205" source="XBrvubIOwSxENSqEJ7tH-217" target="XBrvubIOwSxENSqEJ7tH-227" edge="1">
          <mxGeometry relative="1" as="geometry" />
        </mxCell>
        <mxCell id="XBrvubIOwSxENSqEJ7tH-217" value="Use both left and right side of cell in interpolation" style="rounded=1;whiteSpace=wrap;html=1;fontSize=12;glass=0;strokeWidth=1;shadow=0;" parent="XBrvubIOwSxENSqEJ7tH-205" vertex="1">
          <mxGeometry x="190" y="470" width="120" height="40" as="geometry" />
        </mxCell>
        <mxCell id="XBrvubIOwSxENSqEJ7tH-227" value="Y index of &lt;br&gt;the lower-left &lt;br&gt;point is max&lt;br&gt;index of&lt;br&gt;slab" style="rhombus;whiteSpace=wrap;html=1;" parent="XBrvubIOwSxENSqEJ7tH-205" vertex="1">
          <mxGeometry x="55" y="560" width="110" height="120" as="geometry" />
        </mxCell>
        <mxCell id="XBrvubIOwSxENSqEJ7tH-233" style="edgeStyle=orthogonalEdgeStyle;rounded=0;orthogonalLoop=1;jettySize=auto;html=1;exitX=0.5;exitY=1;exitDx=0;exitDy=0;entryX=0.5;entryY=0;entryDx=0;entryDy=0;" parent="XBrvubIOwSxENSqEJ7tH-205" source="XBrvubIOwSxENSqEJ7tH-228" target="XBrvubIOwSxENSqEJ7tH-232" edge="1">
          <mxGeometry relative="1" as="geometry" />
        </mxCell>
        <mxCell id="XBrvubIOwSxENSqEJ7tH-228" value="Only use bottom side of cell in interpolation" style="rounded=1;whiteSpace=wrap;html=1;fontSize=12;glass=0;strokeWidth=1;shadow=0;" parent="XBrvubIOwSxENSqEJ7tH-205" vertex="1">
          <mxGeometry x="50" y="710" width="120" height="40" as="geometry" />
        </mxCell>
        <mxCell id="XBrvubIOwSxENSqEJ7tH-223" style="edgeStyle=orthogonalEdgeStyle;rounded=0;orthogonalLoop=1;jettySize=auto;html=1;exitX=0.5;exitY=1;exitDx=0;exitDy=0;entryX=0.5;entryY=0;entryDx=0;entryDy=0;" parent="XBrvubIOwSxENSqEJ7tH-205" source="XBrvubIOwSxENSqEJ7tH-227" target="XBrvubIOwSxENSqEJ7tH-228" edge="1">
          <mxGeometry relative="1" as="geometry" />
        </mxCell>
        <mxCell id="XBrvubIOwSxENSqEJ7tH-224" value="Yes" style="edgeLabel;html=1;align=center;verticalAlign=middle;resizable=0;points=[];" parent="XBrvubIOwSxENSqEJ7tH-223" vertex="1" connectable="0">
          <mxGeometry x="-0.2762" y="-1" relative="1" as="geometry">
            <mxPoint as="offset" />
          </mxGeometry>
        </mxCell>
        <mxCell id="XBrvubIOwSxENSqEJ7tH-234" style="edgeStyle=orthogonalEdgeStyle;rounded=0;orthogonalLoop=1;jettySize=auto;html=1;exitX=0.5;exitY=1;exitDx=0;exitDy=0;entryX=0.5;entryY=0;entryDx=0;entryDy=0;" parent="XBrvubIOwSxENSqEJ7tH-205" source="XBrvubIOwSxENSqEJ7tH-229" target="XBrvubIOwSxENSqEJ7tH-232" edge="1">
          <mxGeometry relative="1" as="geometry">
            <Array as="points">
              <mxPoint x="250" y="770" />
              <mxPoint x="110" y="770" />
            </Array>
          </mxGeometry>
        </mxCell>
        <mxCell id="XBrvubIOwSxENSqEJ7tH-229" value="Use both top and bottom side of cell in interpolation" style="rounded=1;whiteSpace=wrap;html=1;fontSize=12;glass=0;strokeWidth=1;shadow=0;" parent="XBrvubIOwSxENSqEJ7tH-205" vertex="1">
          <mxGeometry x="190" y="710" width="120" height="40" as="geometry" />
        </mxCell>
        <mxCell id="XBrvubIOwSxENSqEJ7tH-225" style="edgeStyle=orthogonalEdgeStyle;rounded=0;orthogonalLoop=1;jettySize=auto;html=1;exitX=1;exitY=0.5;exitDx=0;exitDy=0;" parent="XBrvubIOwSxENSqEJ7tH-205" source="XBrvubIOwSxENSqEJ7tH-227" target="XBrvubIOwSxENSqEJ7tH-229" edge="1">
          <mxGeometry relative="1" as="geometry" />
        </mxCell>
        <mxCell id="XBrvubIOwSxENSqEJ7tH-226" value="No" style="edgeLabel;html=1;align=center;verticalAlign=middle;resizable=0;points=[];" parent="XBrvubIOwSxENSqEJ7tH-225" vertex="1" connectable="0">
          <mxGeometry x="-0.4287" y="1" relative="1" as="geometry">
            <mxPoint as="offset" />
          </mxGeometry>
        </mxCell>
        <mxCell id="XBrvubIOwSxENSqEJ7tH-236" style="edgeStyle=orthogonalEdgeStyle;rounded=0;orthogonalLoop=1;jettySize=auto;html=1;exitX=0.5;exitY=1;exitDx=0;exitDy=0;entryX=0.5;entryY=0;entryDx=0;entryDy=0;" parent="XBrvubIOwSxENSqEJ7tH-205" source="XBrvubIOwSxENSqEJ7tH-232" target="XBrvubIOwSxENSqEJ7tH-235" edge="1">
          <mxGeometry relative="1" as="geometry" />
        </mxCell>
        <mxCell id="XBrvubIOwSxENSqEJ7tH-232" value="Get the Z coordinate of all cell points considered" style="rounded=1;whiteSpace=wrap;html=1;fontSize=12;glass=0;strokeWidth=1;shadow=0;" parent="XBrvubIOwSxENSqEJ7tH-205" vertex="1">
          <mxGeometry x="50" y="780" width="120" height="50" as="geometry" />
        </mxCell>
        <mxCell id="XBrvubIOwSxENSqEJ7tH-235" value="Calculate the Z coordinate of the query point" style="rounded=1;whiteSpace=wrap;html=1;fontSize=12;glass=0;strokeWidth=1;shadow=0;" parent="XBrvubIOwSxENSqEJ7tH-205" vertex="1">
          <mxGeometry x="50" y="870" width="120" height="50" as="geometry" />
        </mxCell>
        <mxCell id="XBrvubIOwSxENSqEJ7tH-268" style="edgeStyle=orthogonalEdgeStyle;rounded=0;orthogonalLoop=1;jettySize=auto;html=1;exitX=0.5;exitY=1;exitDx=0;exitDy=0;entryX=1;entryY=1;entryDx=0;entryDy=0;" parent="WIyWlLk6GJQsqaUBKTNV-1" source="XBrvubIOwSxENSqEJ7tH-237" target="XBrvubIOwSxENSqEJ7tH-271" edge="1">
          <mxGeometry relative="1" as="geometry">
            <Array as="points">
              <mxPoint x="730" y="420" />
              <mxPoint x="580" y="420" />
              <mxPoint x="580" y="390" />
            </Array>
          </mxGeometry>
        </mxCell>
        <mxCell id="XBrvubIOwSxENSqEJ7tH-237" value="Renderer.BaseRenderer.&lt;br&gt;BaseRenderer.interpolate_z()" style="swimlane;whiteSpace=wrap;html=1;startSize=30;fillColor=#d80073;fontColor=#ffffff;strokeColor=#A50040;" parent="WIyWlLk6GJQsqaUBKTNV-1" vertex="1">
          <mxGeometry x="610" y="330" width="240" height="70" as="geometry">
            <mxRectangle x="80" y="890" width="250" height="30" as="alternateBounds" />
          </mxGeometry>
        </mxCell>
        <mxCell id="XBrvubIOwSxENSqEJ7tH-267" style="edgeStyle=orthogonalEdgeStyle;rounded=0;orthogonalLoop=1;jettySize=auto;html=1;exitX=1;exitY=0.5;exitDx=0;exitDy=0;entryX=0.5;entryY=0;entryDx=0;entryDy=0;" parent="WIyWlLk6GJQsqaUBKTNV-1" source="XBrvubIOwSxENSqEJ7tH-271" target="XBrvubIOwSxENSqEJ7tH-237" edge="1">
          <mxGeometry relative="1" as="geometry" />
        </mxCell>
        <mxCell id="XBrvubIOwSxENSqEJ7tH-289" style="edgeStyle=orthogonalEdgeStyle;rounded=0;orthogonalLoop=1;jettySize=auto;html=1;exitX=0.5;exitY=1;exitDx=0;exitDy=0;entryX=1;entryY=1;entryDx=0;entryDy=0;" parent="WIyWlLk6GJQsqaUBKTNV-1" source="XBrvubIOwSxENSqEJ7tH-269" target="XBrvubIOwSxENSqEJ7tH-274" edge="1">
          <mxGeometry relative="1" as="geometry">
            <Array as="points">
              <mxPoint x="740" y="710" />
              <mxPoint x="600" y="710" />
              <mxPoint x="600" y="670" />
            </Array>
          </mxGeometry>
        </mxCell>
        <mxCell id="XBrvubIOwSxENSqEJ7tH-269" value="Renderer.BaseRenderer. BaseRenderer.interpolate_z()" style="swimlane;whiteSpace=wrap;html=1;startSize=30;fillColor=#d80073;fontColor=#ffffff;strokeColor=#A50040;" parent="WIyWlLk6GJQsqaUBKTNV-1" vertex="1">
          <mxGeometry x="620" y="630" width="240" height="70" as="geometry">
            <mxRectangle x="80" y="890" width="250" height="30" as="alternateBounds" />
          </mxGeometry>
        </mxCell>
        <mxCell id="XBrvubIOwSxENSqEJ7tH-288" style="edgeStyle=orthogonalEdgeStyle;rounded=0;orthogonalLoop=1;jettySize=auto;html=1;exitX=1;exitY=0.5;exitDx=0;exitDy=0;entryX=0.5;entryY=0;entryDx=0;entryDy=0;" parent="WIyWlLk6GJQsqaUBKTNV-1" source="XBrvubIOwSxENSqEJ7tH-274" target="XBrvubIOwSxENSqEJ7tH-269" edge="1">
          <mxGeometry relative="1" as="geometry" />
        </mxCell>
        <mxCell id="XBrvubIOwSxENSqEJ7tH-293" style="edgeStyle=orthogonalEdgeStyle;rounded=0;orthogonalLoop=1;jettySize=auto;html=1;exitX=0.5;exitY=1;exitDx=0;exitDy=0;entryX=1;entryY=1;entryDx=0;entryDy=0;" parent="WIyWlLk6GJQsqaUBKTNV-1" source="XBrvubIOwSxENSqEJ7tH-291" target="XBrvubIOwSxENSqEJ7tH-290" edge="1">
          <mxGeometry relative="1" as="geometry">
            <Array as="points">
              <mxPoint x="1050" y="1100" />
              <mxPoint x="890" y="1100" />
              <mxPoint x="890" y="750" />
            </Array>
          </mxGeometry>
        </mxCell>
        <mxCell id="XBrvubIOwSxENSqEJ7tH-291" value="Renderer.BaseRenderer.&lt;br&gt;BaseRenderer.insert_hole()" style="swimlane;whiteSpace=wrap;html=1;startSize=30;" parent="WIyWlLk6GJQsqaUBKTNV-1" vertex="1">
          <mxGeometry x="930" y="750" width="240" height="330" as="geometry">
            <mxRectangle x="80" y="890" width="250" height="30" as="alternateBounds" />
          </mxGeometry>
        </mxCell>
        <mxCell id="XBrvubIOwSxENSqEJ7tH-331" style="edgeStyle=orthogonalEdgeStyle;rounded=0;orthogonalLoop=1;jettySize=auto;html=1;exitX=0.5;exitY=1;exitDx=0;exitDy=0;entryX=0.5;entryY=0;entryDx=0;entryDy=0;" parent="XBrvubIOwSxENSqEJ7tH-291" source="XBrvubIOwSxENSqEJ7tH-327" target="XBrvubIOwSxENSqEJ7tH-328" edge="1">
          <mxGeometry relative="1" as="geometry" />
        </mxCell>
        <mxCell id="XBrvubIOwSxENSqEJ7tH-327" value="Find closest distance between points in the hole and the hull" style="rounded=1;whiteSpace=wrap;html=1;fontSize=12;glass=0;strokeWidth=1;shadow=0;" parent="XBrvubIOwSxENSqEJ7tH-291" vertex="1">
          <mxGeometry x="50" y="50" width="120" height="50" as="geometry" />
        </mxCell>
        <mxCell id="XBrvubIOwSxENSqEJ7tH-328" value="Make the closest point in the hole the first element on the hole point list" style="rounded=1;whiteSpace=wrap;html=1;fontSize=12;glass=0;strokeWidth=1;shadow=0;" parent="XBrvubIOwSxENSqEJ7tH-291" vertex="1">
          <mxGeometry x="50" y="120" width="120" height="60" as="geometry" />
        </mxCell>
        <mxCell id="XBrvubIOwSxENSqEJ7tH-333" style="edgeStyle=orthogonalEdgeStyle;rounded=0;orthogonalLoop=1;jettySize=auto;html=1;exitX=0.5;exitY=1;exitDx=0;exitDy=0;entryX=0.5;entryY=0;entryDx=0;entryDy=0;" parent="XBrvubIOwSxENSqEJ7tH-291" source="XBrvubIOwSxENSqEJ7tH-329" target="XBrvubIOwSxENSqEJ7tH-330" edge="1">
          <mxGeometry relative="1" as="geometry" />
        </mxCell>
        <mxCell id="XBrvubIOwSxENSqEJ7tH-329" value="Split the hull into two parts at the closest point of the hull" style="rounded=1;whiteSpace=wrap;html=1;fontSize=12;glass=0;strokeWidth=1;shadow=0;" parent="XBrvubIOwSxENSqEJ7tH-291" vertex="1">
          <mxGeometry x="50" y="200" width="120" height="60" as="geometry" />
        </mxCell>
        <mxCell id="XBrvubIOwSxENSqEJ7tH-330" value="Fuse hole with hull" style="rounded=1;whiteSpace=wrap;html=1;fontSize=12;glass=0;strokeWidth=1;shadow=0;" parent="XBrvubIOwSxENSqEJ7tH-291" vertex="1">
          <mxGeometry x="50" y="280" width="120" height="30" as="geometry" />
        </mxCell>
        <mxCell id="XBrvubIOwSxENSqEJ7tH-332" style="edgeStyle=orthogonalEdgeStyle;rounded=0;orthogonalLoop=1;jettySize=auto;html=1;exitX=0.5;exitY=1;exitDx=0;exitDy=0;entryX=0.507;entryY=-0.056;entryDx=0;entryDy=0;entryPerimeter=0;" parent="XBrvubIOwSxENSqEJ7tH-291" source="XBrvubIOwSxENSqEJ7tH-328" target="XBrvubIOwSxENSqEJ7tH-329" edge="1">
          <mxGeometry relative="1" as="geometry" />
        </mxCell>
        <mxCell id="XBrvubIOwSxENSqEJ7tH-292" style="edgeStyle=orthogonalEdgeStyle;rounded=0;orthogonalLoop=1;jettySize=auto;html=1;exitX=1;exitY=0.5;exitDx=0;exitDy=0;entryX=0.5;entryY=0;entryDx=0;entryDy=0;" parent="WIyWlLk6GJQsqaUBKTNV-1" source="XBrvubIOwSxENSqEJ7tH-290" target="XBrvubIOwSxENSqEJ7tH-291" edge="1">
          <mxGeometry relative="1" as="geometry">
            <Array as="points">
              <mxPoint x="1050" y="735" />
            </Array>
          </mxGeometry>
        </mxCell>
        <mxCell id="XBrvubIOwSxENSqEJ7tH-297" style="edgeStyle=orthogonalEdgeStyle;rounded=0;orthogonalLoop=1;jettySize=auto;html=1;exitX=0.5;exitY=1;exitDx=0;exitDy=0;entryX=1;entryY=1;entryDx=0;entryDy=0;" parent="WIyWlLk6GJQsqaUBKTNV-1" source="XBrvubIOwSxENSqEJ7tH-295" target="XBrvubIOwSxENSqEJ7tH-294" edge="1">
          <mxGeometry relative="1" as="geometry">
            <Array as="points">
              <mxPoint x="740" y="1100" />
              <mxPoint x="600" y="1100" />
              <mxPoint x="600" y="870" />
            </Array>
          </mxGeometry>
        </mxCell>
        <mxCell id="XBrvubIOwSxENSqEJ7tH-295" value="Renderer.BaseRenderer.&lt;br&gt;BaseRenderer.adapt_coords()" style="swimlane;whiteSpace=wrap;html=1;startSize=30;" parent="WIyWlLk6GJQsqaUBKTNV-1" vertex="1">
          <mxGeometry x="620" y="880" width="240" height="200" as="geometry">
            <mxRectangle x="80" y="890" width="250" height="30" as="alternateBounds" />
          </mxGeometry>
        </mxCell>
        <mxCell id="XBrvubIOwSxENSqEJ7tH-322" value="for each point" style="swimlane;whiteSpace=wrap;html=1;startSize=30;" parent="XBrvubIOwSxENSqEJ7tH-295" vertex="1">
          <mxGeometry x="50" y="50" width="157.5" height="130" as="geometry" />
        </mxCell>
        <mxCell id="XBrvubIOwSxENSqEJ7tH-323" value="Substract scene center coordinates from points coordinates" style="rounded=1;whiteSpace=wrap;html=1;fontSize=12;glass=0;strokeWidth=1;shadow=0;" parent="XBrvubIOwSxENSqEJ7tH-322" vertex="1">
          <mxGeometry x="20" y="50" width="120" height="60" as="geometry" />
        </mxCell>
        <mxCell id="XBrvubIOwSxENSqEJ7tH-296" style="edgeStyle=orthogonalEdgeStyle;rounded=0;orthogonalLoop=1;jettySize=auto;html=1;exitX=1;exitY=0.5;exitDx=0;exitDy=0;entryX=0.5;entryY=0;entryDx=0;entryDy=0;" parent="WIyWlLk6GJQsqaUBKTNV-1" source="XBrvubIOwSxENSqEJ7tH-294" target="XBrvubIOwSxENSqEJ7tH-295" edge="1">
          <mxGeometry relative="1" as="geometry" />
        </mxCell>
      </root>
    </mxGraphModel>
  </diagram>
</mxfile>
